<svg width="20" height="20" viewBox="0 0 58 58" fill="none" xmlns="http://www.w3.org/2000/svg">
<path d="M29 9.5V3M29 9.5C27.2761 9.5 25.6228 10.1848 24.4038 11.4038C23.1848 12.6228 22.5 14.2761 22.5 16C22.5 17.7239 23.1848 19.3772 24.4038 20.5962C25.6228 21.8152 27.2761 22.5 29 22.5M29 9.5C30.7239 9.5 32.3772 10.1848 33.5962 11.4038C34.8152 12.6228 35.5 14.2761 35.5 16C35.5 17.7239 34.8152 19.3772 33.5962 20.5962C32.3772 21.8152 30.7239 22.5 29 22.5M29 22.5V55M9.5 48.5C11.2239 48.5 12.8772 47.8152 14.0962 46.5962C15.3152 45.3772 16 43.7239 16 42C16 40.2761 15.3152 38.6228 14.0962 37.4038C12.8772 36.1848 11.2239 35.5 9.5 35.5M9.5 48.5C7.77609 48.5 6.12279 47.8152 4.90381 46.5962C3.68482 45.3772 3 43.7239 3 42C3 40.2761 3.68482 38.6228 4.90381 37.4038C6.12279 36.1848 7.77609 35.5 9.5 35.5M9.5 48.5V55M9.5 35.5V3M48.5 48.5C50.2239 48.5 51.8772 47.8152 53.0962 46.5962C54.3152 45.3772 55 43.7239 55 42C55 40.2761 54.3152 38.6228 53.0962 37.4038C51.8772 36.1848 50.2239 35.5 48.5 35.5M48.5 48.5C46.7761 48.5 45.1228 47.8152 43.9038 46.5962C42.6848 45.3772 42 43.7239 42 42C42 40.2761 42.6848 38.6228 43.9038 37.4038C45.1228 36.1848 46.7761 35.5 48.5 35.5M48.5 48.5V55M48.5 35.5V3" stroke="#FFFFFF" stroke-width="5" stroke-linecap="round" stroke-linejoin="round"/>
</svg>
