<svg id="Layer_4" height="512" viewBox="0 0 512 512" width="512" xmlns="http://www.w3.org/2000/svg" data-name="Layer 4"><path d="m152 448h-24a32 32 0 0 1 -32-32v-216h320v144" fill="#a2d2f9"/><path d="m80 200h352c15.376 0 21.9-19.574 9.6-28.8l-176-132a16 16 0 0 0 -19.2 0l-176 132c-12.3 9.226-5.776 28.8 9.6 28.8z" fill="#0a529b"/><path d="m464 480h-272.815a16 16 0 0 1 -11.959-5.37l-49.2-55.354a16 16 0 0 1 .645-21.944l48.646-48.646a16 16 0 0 1 11.31-4.686h273.373a16 16 0 0 1 16 16v104a16 16 0 0 1 -16 16z" fill="#fcc42d"/><path d="m200 344v-48a16 16 0 0 1 16-16h80a16 16 0 0 1 16 16v48" fill="#064186"/><path d="m96 200h320v24h-320z" fill="#064186" opacity=".2"/><g fill="#fcfafa"><path d="m317.184 77.888-51.584-38.688a16 16 0 0 0 -19.2 0l-152.125 114.094c123.079 4.192 192.484-45.443 222.909-75.406z" opacity=".2"/><path d="m128 448h8.814v-248h-40.814v216a32 32 0 0 0 32 32z" opacity=".2"/><path d="m140.435 429.332 48.646-48.646a16 16 0 0 1 11.313-4.686h273.373a15.949 15.949 0 0 1 6.233 1.26v-17.26a16 16 0 0 0 -16-16h-273.373a16 16 0 0 0 -11.314 4.686l-48.646 48.646a16 16 0 0 0 -.645 21.944l9.668 10.876c.242-.277.481-.552.745-.82z" opacity=".2"/></g><circle cx="184" cy="408" fill="#064186" r="16"/><path d="m184 416h-136a24.027 24.027 0 0 1 -24-24v-16a24.027 24.027 0 0 1 24-24h48v16h-48a8.009 8.009 0 0 0 -8 8v16a8.009 8.009 0 0 0 8 8h136z" fill="#0a529b"/></svg>